<mxfile host="app.diagrams.net" modified="2021-02-03T08:48:37.821Z" agent="5.0 (Macintosh; Intel Mac OS X 10_15_7) AppleWebKit/537.36 (KHTML, like Gecko) Chrome/88.0.4324.96 Safari/537.36" etag="O3xGSe2XpsvJQyCEdias" version="14.2.9" type="github">
  <diagram id="VMFxmdH4z1Ak0hR0MI4i" name="Page-1">
    <mxGraphModel dx="1381" dy="667" grid="1" gridSize="10" guides="1" tooltips="1" connect="1" arrows="1" fold="1" page="1" pageScale="1" pageWidth="827" pageHeight="1169" math="0" shadow="0">
      <root>
        <mxCell id="0" />
        <mxCell id="1" parent="0" />
        <mxCell id="eBu9w11p36_Ps7mkt3---1" value="数据操审批流程" style="rounded=0;whiteSpace=wrap;html=1;" parent="1" vertex="1">
          <mxGeometry x="64" y="120" width="480" height="20" as="geometry" />
        </mxCell>
        <mxCell id="eBu9w11p36_Ps7mkt3---3" value="申请人" style="rounded=0;whiteSpace=wrap;html=1;" parent="1" vertex="1">
          <mxGeometry x="64" y="140" width="120" height="20" as="geometry" />
        </mxCell>
        <mxCell id="eBu9w11p36_Ps7mkt3---4" value="团队主管" style="rounded=0;whiteSpace=wrap;html=1;" parent="1" vertex="1">
          <mxGeometry x="184" y="140" width="120" height="20" as="geometry" />
        </mxCell>
        <mxCell id="eBu9w11p36_Ps7mkt3---6" value="执行人员" style="rounded=0;whiteSpace=wrap;html=1;" parent="1" vertex="1">
          <mxGeometry x="304" y="140" width="120" height="20" as="geometry" />
        </mxCell>
        <mxCell id="eBu9w11p36_Ps7mkt3---7" value="相关人员" style="rounded=0;whiteSpace=wrap;html=1;" parent="1" vertex="1">
          <mxGeometry x="424" y="140" width="120" height="20" as="geometry" />
        </mxCell>
        <mxCell id="eBu9w11p36_Ps7mkt3---8" value="" style="rounded=0;whiteSpace=wrap;html=1;" parent="1" vertex="1">
          <mxGeometry x="64" y="160" width="120" height="130" as="geometry" />
        </mxCell>
        <mxCell id="eBu9w11p36_Ps7mkt3---9" value="申请" style="rounded=1;whiteSpace=wrap;html=1;" parent="1" vertex="1">
          <mxGeometry x="83.5" y="188" width="81" height="30" as="geometry" />
        </mxCell>
        <mxCell id="eBu9w11p36_Ps7mkt3---10" value="" style="rounded=0;whiteSpace=wrap;html=1;" parent="1" vertex="1">
          <mxGeometry x="184" y="160" width="120" height="130" as="geometry" />
        </mxCell>
        <mxCell id="eBu9w11p36_Ps7mkt3---12" value="" style="rounded=0;whiteSpace=wrap;html=1;fontStyle=1" parent="1" vertex="1">
          <mxGeometry x="304" y="160" width="120" height="130" as="geometry" />
        </mxCell>
        <mxCell id="eBu9w11p36_Ps7mkt3---13" value="" style="rounded=0;whiteSpace=wrap;html=1;" parent="1" vertex="1">
          <mxGeometry x="424" y="160" width="120" height="130" as="geometry" />
        </mxCell>
        <mxCell id="eBu9w11p36_Ps7mkt3---14" value="使用" style="rounded=1;whiteSpace=wrap;html=1;" parent="1" vertex="1">
          <mxGeometry x="83.5" y="250" width="81" height="30" as="geometry" />
        </mxCell>
        <mxCell id="eBu9w11p36_Ps7mkt3---15" value="审批" style="rhombus;whiteSpace=wrap;html=1;" parent="1" vertex="1">
          <mxGeometry x="221" y="179" width="46" height="50" as="geometry" />
        </mxCell>
        <mxCell id="eBu9w11p36_Ps7mkt3---17" value="执行" style="rounded=1;whiteSpace=wrap;html=1;" parent="1" vertex="1">
          <mxGeometry x="323.5" y="189" width="81" height="30" as="geometry" />
        </mxCell>
        <mxCell id="eBu9w11p36_Ps7mkt3---18" value="抄送" style="shape=document;whiteSpace=wrap;html=1;boundedLbl=1;" parent="1" vertex="1">
          <mxGeometry x="449" y="170" width="70" height="32" as="geometry" />
        </mxCell>
        <mxCell id="eBu9w11p36_Ps7mkt3---19" value="抄送" style="shape=document;whiteSpace=wrap;html=1;boundedLbl=1;" parent="1" vertex="1">
          <mxGeometry x="449" y="248" width="70" height="32" as="geometry" />
        </mxCell>
        <mxCell id="eBu9w11p36_Ps7mkt3---20" value="抄送" style="shape=document;whiteSpace=wrap;html=1;boundedLbl=1;" parent="1" vertex="1">
          <mxGeometry x="449" y="209" width="70" height="32" as="geometry" />
        </mxCell>
        <mxCell id="eBu9w11p36_Ps7mkt3---21" value="" style="endArrow=classic;html=1;exitX=1;exitY=0.5;exitDx=0;exitDy=0;entryX=0;entryY=0.5;entryDx=0;entryDy=0;" parent="1" source="eBu9w11p36_Ps7mkt3---9" target="eBu9w11p36_Ps7mkt3---15" edge="1">
          <mxGeometry width="50" height="50" relative="1" as="geometry">
            <mxPoint x="160" y="240" as="sourcePoint" />
            <mxPoint x="210" y="190" as="targetPoint" />
          </mxGeometry>
        </mxCell>
        <mxCell id="eBu9w11p36_Ps7mkt3---22" value="" style="endArrow=classic;html=1;exitX=1;exitY=0.5;exitDx=0;exitDy=0;entryX=0;entryY=0.5;entryDx=0;entryDy=0;" parent="1" edge="1">
          <mxGeometry width="50" height="50" relative="1" as="geometry">
            <mxPoint x="267" y="203.5" as="sourcePoint" />
            <mxPoint x="341" y="203" as="targetPoint" />
          </mxGeometry>
        </mxCell>
        <mxCell id="eBu9w11p36_Ps7mkt3---27" value="通过" style="edgeLabel;html=1;align=center;verticalAlign=middle;resizable=0;points=[];" parent="eBu9w11p36_Ps7mkt3---22" vertex="1" connectable="0">
          <mxGeometry x="-0.0538" y="1" relative="1" as="geometry">
            <mxPoint as="offset" />
          </mxGeometry>
        </mxCell>
        <mxCell id="eBu9w11p36_Ps7mkt3---25" value="" style="endArrow=classic;html=1;entryX=1;entryY=0.5;entryDx=0;entryDy=0;exitX=0.5;exitY=1;exitDx=0;exitDy=0;" parent="1" target="eBu9w11p36_Ps7mkt3---14" edge="1" source="eBu9w11p36_Ps7mkt3---17">
          <mxGeometry width="50" height="50" relative="1" as="geometry">
            <mxPoint x="480" y="220" as="sourcePoint" />
            <mxPoint x="480" y="310" as="targetPoint" />
            <Array as="points">
              <mxPoint x="364" y="255" />
              <mxPoint x="364" y="265" />
            </Array>
          </mxGeometry>
        </mxCell>
        <mxCell id="eBu9w11p36_Ps7mkt3---28" value="" style="endArrow=classic;html=1;exitX=0.5;exitY=0;exitDx=0;exitDy=0;entryX=0.5;entryY=0;entryDx=0;entryDy=0;" parent="1" source="eBu9w11p36_Ps7mkt3---15" target="eBu9w11p36_Ps7mkt3---9" edge="1">
          <mxGeometry width="50" height="50" relative="1" as="geometry">
            <mxPoint x="240" y="179" as="sourcePoint" />
            <mxPoint x="244" y="170" as="targetPoint" />
            <Array as="points">
              <mxPoint x="244" y="170" />
              <mxPoint x="124" y="170" />
            </Array>
          </mxGeometry>
        </mxCell>
        <mxCell id="eBu9w11p36_Ps7mkt3---30" value="不通过" style="edgeLabel;html=1;align=center;verticalAlign=middle;resizable=0;points=[];" parent="eBu9w11p36_Ps7mkt3---28" vertex="1" connectable="0">
          <mxGeometry x="-0.2925" relative="1" as="geometry">
            <mxPoint as="offset" />
          </mxGeometry>
        </mxCell>
      </root>
    </mxGraphModel>
  </diagram>
</mxfile>
